<svg width="30" height="29" viewBox="0 0 30 29" fill="none" xmlns="http://www.w3.org/2000/svg">
<path d="M28.35 19.3274C26.3 19.3274 24.3167 19.0152 22.4667 18.4532C21.8833 18.2658 21.2333 18.4063 20.7833 18.8279L18.1667 21.9034C13.45 19.7958 9.03333 15.8148 6.68333 11.2405L9.93333 8.64895C10.3833 8.21181 10.5167 7.60295 10.3333 7.05654C9.71667 5.32363 9.4 3.46582 9.4 1.54557C9.4 0.702532 8.65 0 7.75 0H1.98333C1.08333 0 0 0.374684 0 1.54557C0 16.0489 12.8833 28.1013 28.35 28.1013C29.5333 28.1013 30 27.1177 30 26.2591V20.873C30 20.03 29.25 19.3274 28.35 19.3274Z" fill="#015AAB"/>
</svg>
